<svg xmlns="http://www.w3.org/2000/svg" viewBox="0 0 32 32">
  <defs>
    <linearGradient id="grad" x1="0%" y1="0%" x2="100%" y2="100%">
      <stop offset="0%" style="stop-color:#ff91af"/>
      <stop offset="100%" style="stop-color:#f472b6"/>
    </linearGradient>
  </defs>
  <rect width="32" height="32" rx="8" fill="url(#grad)"/>
  <path d="M10 8h2a2 2 0 012 2v12a2 2 0 01-2 2h-2a2 2 0 01-2-2V10a2 2 0 012-2z" fill="white" opacity="0.9"/>
  <path d="M20 8h2a2 2 0 012 2v12a2 2 0 01-2 2h-2a2 2 0 01-2-2V10a2 2 0 012-2z" fill="white" opacity="0.9"/>
  <path d="M12 11h8M12 16h8M12 21h8" stroke="white" stroke-width="1.5" stroke-linecap="round" opacity="0.6"/>
</svg>
